<svg id="visual" viewBox="0 0 960 540" width="960" height="540" xmlns="http://www.w3.org/2000/svg" xmlns:xlink="http://www.w3.org/1999/xlink" version="1.1"><rect x="0" y="0" width="960" height="540" fill="#FFFFFF"></rect><defs><linearGradient id="grad1_0" x1="43.8%" y1="0%" x2="100%" y2="100%"><stop offset="14.444444444444446%" stop-color="#fcd79f" stop-opacity="1"></stop><stop offset="85.55555555555554%" stop-color="#fcd79f" stop-opacity="1"></stop></linearGradient></defs><defs><linearGradient id="grad1_1" x1="43.8%" y1="0%" x2="100%" y2="100%"><stop offset="14.444444444444446%" stop-color="#fcd79f" stop-opacity="1"></stop><stop offset="85.55555555555554%" stop-color="#ffe4bf" stop-opacity="1"></stop></linearGradient></defs><defs><linearGradient id="grad1_2" x1="43.8%" y1="0%" x2="100%" y2="100%"><stop offset="14.444444444444446%" stop-color="#fff1df" stop-opacity="1"></stop><stop offset="85.55555555555554%" stop-color="#ffe4bf" stop-opacity="1"></stop></linearGradient></defs><defs><linearGradient id="grad1_3" x1="43.8%" y1="0%" x2="100%" y2="100%"><stop offset="14.444444444444446%" stop-color="#fff1df" stop-opacity="1"></stop><stop offset="85.55555555555554%" stop-color="#ffffff" stop-opacity="1"></stop></linearGradient></defs><defs><linearGradient id="grad2_0" x1="0%" y1="0%" x2="56.3%" y2="100%"><stop offset="14.444444444444446%" stop-color="#fcd79f" stop-opacity="1"></stop><stop offset="85.55555555555554%" stop-color="#fcd79f" stop-opacity="1"></stop></linearGradient></defs><defs><linearGradient id="grad2_1" x1="0%" y1="0%" x2="56.3%" y2="100%"><stop offset="14.444444444444446%" stop-color="#ffe4bf" stop-opacity="1"></stop><stop offset="85.55555555555554%" stop-color="#fcd79f" stop-opacity="1"></stop></linearGradient></defs><defs><linearGradient id="grad2_2" x1="0%" y1="0%" x2="56.3%" y2="100%"><stop offset="14.444444444444446%" stop-color="#ffe4bf" stop-opacity="1"></stop><stop offset="85.55555555555554%" stop-color="#fff1df" stop-opacity="1"></stop></linearGradient></defs><defs><linearGradient id="grad2_3" x1="0%" y1="0%" x2="56.3%" y2="100%"><stop offset="14.444444444444446%" stop-color="#ffffff" stop-opacity="1"></stop><stop offset="85.55555555555554%" stop-color="#fff1df" stop-opacity="1"></stop></linearGradient></defs><g transform="translate(960, 0)"><path d="M0 486C-62.9 478.6 -125.8 471.2 -186 449C-246.2 426.8 -303.6 389.8 -340.8 340.8C-378 291.9 -394.9 231 -415.7 172.2C-436.6 113.4 -461.3 56.7 -486 0L0 0Z" fill="#fff8ef"></path><path d="M0 364.5C-47.2 359 -94.4 353.4 -139.5 336.8C-184.6 320.1 -227.7 292.3 -255.6 255.6C-283.5 218.9 -296.2 173.2 -311.8 129.2C-327.4 85.1 -346 42.5 -364.5 0L0 0Z" fill="#ffebcf"></path><path d="M0 243C-31.5 239.3 -62.9 235.6 -93 224.5C-123.1 213.4 -151.8 194.9 -170.4 170.4C-189 145.9 -197.5 115.5 -207.9 86.1C-218.3 56.7 -230.6 28.4 -243 0L0 0Z" fill="#fedeaf"></path><path d="M0 121.5C-15.7 119.7 -31.5 117.8 -46.5 112.3C-61.5 106.7 -75.9 97.4 -85.2 85.2C-94.5 73 -98.7 57.7 -103.9 43.1C-109.1 28.4 -115.3 14.2 -121.5 0L0 0Z" fill="#fcd79f"></path></g><g transform="translate(0, 540)"><path d="M0 -486C52.8 -449.5 105.6 -413.1 161.9 -390.8C218.2 -368.5 278 -360.5 329.5 -329.5C381 -298.6 424.3 -244.7 449 -186C473.7 -127.3 479.9 -63.6 486 0L0 0Z" fill="#fff8ef"></path><path d="M0 -364.5C39.6 -337.2 79.2 -309.8 121.4 -293.1C163.6 -276.4 208.5 -270.3 247.1 -247.1C285.8 -223.9 318.2 -183.5 336.8 -139.5C355.3 -95.4 359.9 -47.7 364.5 0L0 0Z" fill="#ffebcf"></path><path d="M0 -243C26.4 -224.8 52.8 -206.5 80.9 -195.4C109.1 -184.3 139 -180.2 164.8 -164.8C190.5 -149.3 212.2 -122.4 224.5 -93C236.9 -63.6 239.9 -31.8 243 0L0 0Z" fill="#fedeaf"></path><path d="M0 -121.5C13.2 -112.4 26.4 -103.3 40.5 -97.7C54.5 -92.1 69.5 -90.1 82.4 -82.4C95.3 -74.6 106.1 -61.2 112.3 -46.5C118.4 -31.8 120 -15.9 121.5 0L0 0Z" fill="#fcd79f"></path></g></svg>