<svg id="visual" viewBox="0 0 960 540" width="960" height="540" xmlns="http://www.w3.org/2000/svg" xmlns:xlink="http://www.w3.org/1999/xlink" version="1.1"><rect x="0" y="0" width="960" height="540" fill="#FFFFFF"></rect><defs><linearGradient id="grad1_0" x1="43.8%" y1="0%" x2="100%" y2="100%"><stop offset="14.444444444444446%" stop-color="#8dcaf7" stop-opacity="1"></stop><stop offset="85.55555555555554%" stop-color="#8dcaf7" stop-opacity="1"></stop></linearGradient></defs><defs><linearGradient id="grad1_1" x1="43.8%" y1="0%" x2="100%" y2="100%"><stop offset="14.444444444444446%" stop-color="#8dcaf7" stop-opacity="1"></stop><stop offset="85.55555555555554%" stop-color="#b6dbfa" stop-opacity="1"></stop></linearGradient></defs><defs><linearGradient id="grad1_2" x1="43.8%" y1="0%" x2="100%" y2="100%"><stop offset="14.444444444444446%" stop-color="#dcedfd" stop-opacity="1"></stop><stop offset="85.55555555555554%" stop-color="#b6dbfa" stop-opacity="1"></stop></linearGradient></defs><defs><linearGradient id="grad1_3" x1="43.8%" y1="0%" x2="100%" y2="100%"><stop offset="14.444444444444446%" stop-color="#dcedfd" stop-opacity="1"></stop><stop offset="85.55555555555554%" stop-color="#ffffff" stop-opacity="1"></stop></linearGradient></defs><defs><linearGradient id="grad2_0" x1="0%" y1="0%" x2="56.3%" y2="100%"><stop offset="14.444444444444446%" stop-color="#8dcaf7" stop-opacity="1"></stop><stop offset="85.55555555555554%" stop-color="#8dcaf7" stop-opacity="1"></stop></linearGradient></defs><defs><linearGradient id="grad2_1" x1="0%" y1="0%" x2="56.3%" y2="100%"><stop offset="14.444444444444446%" stop-color="#b6dbfa" stop-opacity="1"></stop><stop offset="85.55555555555554%" stop-color="#8dcaf7" stop-opacity="1"></stop></linearGradient></defs><defs><linearGradient id="grad2_2" x1="0%" y1="0%" x2="56.3%" y2="100%"><stop offset="14.444444444444446%" stop-color="#b6dbfa" stop-opacity="1"></stop><stop offset="85.55555555555554%" stop-color="#dcedfd" stop-opacity="1"></stop></linearGradient></defs><defs><linearGradient id="grad2_3" x1="0%" y1="0%" x2="56.3%" y2="100%"><stop offset="14.444444444444446%" stop-color="#ffffff" stop-opacity="1"></stop><stop offset="85.55555555555554%" stop-color="#dcedfd" stop-opacity="1"></stop></linearGradient></defs><g transform="translate(960, 0)"><path d="M0 486C-62.7 464.1 -125.5 442.2 -168 405.6C-210.5 368.9 -232.8 317.5 -282.8 282.8C-332.8 248.2 -410.5 230.3 -449 186C-487.5 141.6 -486.7 70.8 -486 0L0 0Z" fill="#eef6fe"></path><path d="M0 364.5C-47.1 348.1 -94.1 331.7 -126 304.2C-157.9 276.7 -174.6 238.1 -212.1 212.1C-249.6 186.1 -307.9 172.7 -336.8 139.5C-365.6 106.2 -365.1 53.1 -364.5 0L0 0Z" fill="#c9e4fb"></path><path d="M0 243C-31.4 232.1 -62.7 221.1 -84 202.8C-105.3 184.5 -116.4 158.7 -141.4 141.4C-166.4 124.1 -205.3 115.2 -224.5 93C-243.7 70.8 -243.4 35.4 -243 0L0 0Z" fill="#a2d3f8"></path><path d="M0 121.5C-15.7 116 -31.4 110.6 -42 101.4C-52.6 92.2 -58.2 79.4 -70.7 70.7C-83.2 62 -102.6 57.6 -112.3 46.5C-121.9 35.4 -121.7 17.7 -121.5 0L0 0Z" fill="#8dcaf7"></path></g><g transform="translate(0, 540)"><path d="M0 -486C46.6 -436.6 93.1 -387.3 153.1 -369.6C213 -351.8 286.4 -365.8 340.1 -340.1C393.9 -314.5 428 -249.3 449 -186C470 -122.7 478 -61.4 486 0L0 0Z" fill="#eef6fe"></path><path d="M0 -364.5C34.9 -327.5 69.8 -290.5 114.8 -277.2C159.8 -263.9 214.8 -274.3 255.1 -255.1C295.4 -235.9 321 -186.9 336.8 -139.5C352.5 -92 358.5 -46 364.5 0L0 0Z" fill="#c9e4fb"></path><path d="M0 -243C23.3 -218.3 46.6 -193.6 76.5 -184.8C106.5 -175.9 143.2 -182.9 170.1 -170.1C196.9 -157.2 214 -124.6 224.5 -93C235 -61.4 239 -30.7 243 0L0 0Z" fill="#a2d3f8"></path><path d="M0 -121.5C11.6 -109.2 23.3 -96.8 38.3 -92.4C53.3 -88 71.6 -91.4 85 -85C98.5 -78.6 107 -62.3 112.3 -46.5C117.5 -30.7 119.5 -15.3 121.5 0L0 0Z" fill="#8dcaf7"></path></g></svg>