<svg id="visual" viewBox="0 0 960 540" width="960" height="540" xmlns="http://www.w3.org/2000/svg" xmlns:xlink="http://www.w3.org/1999/xlink" version="1.1"><rect width="960" height="540" fill="#FFFFFF"></rect><g><g transform="translate(914 304)"><path d="M94.7 -35.3C105.3 1.9 84.5 44.8 50.9 68.9C17.3 93 -29 98.4 -60.1 77.1C-91.3 55.9 -107.1 7.9 -94.6 -31.9C-82 -71.7 -41 -103.5 0.5 -103.7C42 -103.9 84.1 -72.4 94.7 -35.3Z" stroke="#ffebcb" fill="none" stroke-width="20"></path></g><g transform="translate(182 453)"><path d="M59 -17C67.8 7.9 60.3 40.3 39.8 55.3C19.3 70.2 -14.1 67.9 -37.2 51.1C-60.3 34.4 -72.9 3.3 -65 -20.4C-57.1 -44.1 -28.5 -60.3 -1.7 -59.7C25.1 -59.2 50.2 -41.8 59 -17Z" stroke="#ffebcb" fill="none" stroke-width="20"></path></g><g transform="translate(349 35)"><path d="M69 -20.9C80 11.5 73.1 51.3 49.4 68.7C25.7 86.1 -14.8 81.1 -42 60.7C-69.2 40.3 -83 4.4 -73.8 -25.5C-64.6 -55.4 -32.3 -79.3 -1.7 -78.7C29 -78.2 58 -53.2 69 -20.9Z" stroke="#ffebcb" fill="none" stroke-width="20"></path></g><g transform="translate(22 88)"><path d="M59.9 -18.3C69.3 9.4 62.8 43.4 41.1 59.9C19.5 76.4 -17.2 75.4 -41.3 57.7C-65.4 40 -76.8 5.7 -67.8 -21.5C-58.8 -48.6 -29.4 -68.6 -2.1 -67.9C25.3 -67.2 50.5 -45.9 59.9 -18.3Z" stroke="#ffebcb" fill="none" stroke-width="20"></path></g><g transform="translate(662 503)"><path d="M76.2 -25.7C86.7 7.4 74.7 46.9 47.8 66.8C20.8 86.6 -21.2 86.7 -50.4 66.2C-79.6 45.8 -96.1 4.6 -85.5 -28.7C-75 -61.9 -37.5 -87.3 -2.3 -86.5C32.9 -85.8 65.8 -58.9 76.2 -25.7Z" stroke="#ffebcb" fill="none" stroke-width="20"></path></g></g></svg>