<svg id="visual" viewBox="0 0 960 540" width="960" height="540" xmlns="http://www.w3.org/2000/svg" xmlns:xlink="http://www.w3.org/1999/xlink" version="1.1"><rect x="0" y="0" width="960" height="540" fill="#FFFFFF"></rect><path d="M479 0L429 0L429 68L492 68L492 135L439 135L439 203L478 203L478 270L491 270L491 338L431 338L431 405L484 405L484 473L442 473L442 540L0 540L0 473L0 473L0 405L0 405L0 338L0 338L0 270L0 270L0 203L0 203L0 135L0 135L0 68L0 68L0 0L0 0Z" fill="#b05fe6"></path><path d="M430 0L413 0L413 68L402 68L402 135L404 135L404 203L430 203L430 270L407 270L407 338L391 338L391 405L398 405L398 473L416 473L416 540L0 540L0 473L0 473L0 405L0 405L0 338L0 338L0 270L0 270L0 203L0 203L0 135L0 135L0 68L0 68L0 0L0 0Z" fill="#a755de"></path><path d="M347 0L335 0L335 68L320 68L320 135L360 135L360 203L318 203L318 270L344 270L344 338L371 338L371 405L384 405L384 473L361 473L361 540L0 540L0 473L0 473L0 405L0 405L0 338L0 338L0 270L0 270L0 203L0 203L0 135L0 135L0 68L0 68L0 0L0 0Z" fill="#9e4bd7"></path><path d="M300 0L295 0L295 68L272 68L272 135L319 135L319 203L324 203L324 270L273 270L273 338L291 338L291 405L262 405L262 473L327 473L327 540L0 540L0 473L0 473L0 405L0 405L0 338L0 338L0 270L0 270L0 203L0 203L0 135L0 135L0 68L0 68L0 0L0 0Z" fill="#9541cf"></path><path d="M263 0L259 0L259 68L223 68L223 135L221 135L221 203L239 203L239 270L247 270L247 338L220 338L220 405L259 405L259 473L263 473L263 540L0 540L0 473L0 473L0 405L0 405L0 338L0 338L0 270L0 270L0 203L0 203L0 135L0 135L0 68L0 68L0 0L0 0Z" fill="#8d37c7"></path><path d="M198 0L172 0L172 68L163 68L163 135L175 135L175 203L208 203L208 270L165 270L165 338L206 338L206 405L205 405L205 473L208 473L208 540L0 540L0 473L0 473L0 405L0 405L0 338L0 338L0 270L0 270L0 203L0 203L0 135L0 135L0 68L0 68L0 0L0 0Z" fill="#842cc0"></path><path d="M121 0L104 0L104 68L128 68L128 135L100 135L100 203L100 203L100 270L128 270L128 338L105 338L105 405L97 405L97 473L100 473L100 540L0 540L0 473L0 473L0 405L0 405L0 338L0 338L0 270L0 270L0 203L0 203L0 135L0 135L0 68L0 68L0 0L0 0Z" fill="#7b20b8"></path><path d="M61 0L64 0L64 68L87 68L87 135L41 135L41 203L79 203L79 270L58 270L58 338L89 338L89 405L46 405L46 473L89 473L89 540L0 540L0 473L0 473L0 405L0 405L0 338L0 338L0 270L0 270L0 203L0 203L0 135L0 135L0 68L0 68L0 0L0 0Z" fill="#7212b1"></path></svg>