<svg id="visual" viewBox="0 0 960 540" width="960" height="540" xmlns="http://www.w3.org/2000/svg" xmlns:xlink="http://www.w3.org/1999/xlink" version="1.1"><rect x="0" y="0" width="960" height="540" fill="#FFFFFF"></rect><defs><linearGradient id="grad1_0" x1="43.8%" y1="0%" x2="100%" y2="100%"><stop offset="14.444444444444446%" stop-color="#fcce88" stop-opacity="1"></stop><stop offset="85.55555555555554%" stop-color="#fcce88" stop-opacity="1"></stop></linearGradient></defs><defs><linearGradient id="grad1_1" x1="43.8%" y1="0%" x2="100%" y2="100%"><stop offset="14.444444444444446%" stop-color="#fcce88" stop-opacity="1"></stop><stop offset="85.55555555555554%" stop-color="#ffdeaf" stop-opacity="1"></stop></linearGradient></defs><defs><linearGradient id="grad1_2" x1="43.8%" y1="0%" x2="100%" y2="100%"><stop offset="14.444444444444446%" stop-color="#ffeed7" stop-opacity="1"></stop><stop offset="85.55555555555554%" stop-color="#ffdeaf" stop-opacity="1"></stop></linearGradient></defs><defs><linearGradient id="grad1_3" x1="43.8%" y1="0%" x2="100%" y2="100%"><stop offset="14.444444444444446%" stop-color="#ffeed7" stop-opacity="1"></stop><stop offset="85.55555555555554%" stop-color="#ffffff" stop-opacity="1"></stop></linearGradient></defs><defs><linearGradient id="grad2_0" x1="0%" y1="0%" x2="56.3%" y2="100%"><stop offset="14.444444444444446%" stop-color="#fcce88" stop-opacity="1"></stop><stop offset="85.55555555555554%" stop-color="#fcce88" stop-opacity="1"></stop></linearGradient></defs><defs><linearGradient id="grad2_1" x1="0%" y1="0%" x2="56.3%" y2="100%"><stop offset="14.444444444444446%" stop-color="#ffdeaf" stop-opacity="1"></stop><stop offset="85.55555555555554%" stop-color="#fcce88" stop-opacity="1"></stop></linearGradient></defs><defs><linearGradient id="grad2_2" x1="0%" y1="0%" x2="56.3%" y2="100%"><stop offset="14.444444444444446%" stop-color="#ffdeaf" stop-opacity="1"></stop><stop offset="85.55555555555554%" stop-color="#ffeed7" stop-opacity="1"></stop></linearGradient></defs><defs><linearGradient id="grad2_3" x1="0%" y1="0%" x2="56.3%" y2="100%"><stop offset="14.444444444444446%" stop-color="#ffffff" stop-opacity="1"></stop><stop offset="85.55555555555554%" stop-color="#ffeed7" stop-opacity="1"></stop></linearGradient></defs><g transform="translate(960, 0)"><path d="M0 486C-72.6 487.9 -145.1 489.7 -186 449C-226.9 408.3 -236.1 324.9 -277.9 277.9C-319.7 230.9 -394.1 220.1 -434.2 179.9C-474.3 139.6 -480.2 69.8 -486 0L0 0Z" fill="#fff7eb"></path><path d="M0 364.5C-54.4 365.9 -108.8 367.3 -139.5 336.8C-170.2 306.2 -177.1 243.7 -208.4 208.4C-239.8 173.1 -295.6 165.1 -325.7 134.9C-355.8 104.7 -360.1 52.3 -364.5 0L0 0Z" fill="#ffe6c3"></path><path d="M0 243C-36.3 243.9 -72.6 244.9 -93 224.5C-113.4 204.1 -118 162.5 -138.9 138.9C-159.9 115.4 -197.1 110.1 -217.1 89.9C-237.2 69.8 -240.1 34.9 -243 0L0 0Z" fill="#fed69c"></path><path d="M0 121.5C-18.1 122 -36.3 122.4 -46.5 112.3C-56.7 102.1 -59 81.2 -69.5 69.5C-79.9 57.7 -98.5 55 -108.6 45C-118.6 34.9 -120 17.4 -121.5 0L0 0Z" fill="#fcce88"></path></g><g transform="translate(0, 540)"><path d="M0 -486C50.3 -449.4 100.6 -412.7 163.8 -395.4C227 -378.1 303 -380.1 343.7 -343.7C384.3 -307.2 389.6 -232.4 407.4 -168.8C425.3 -105.1 455.6 -52.5 486 0L0 0Z" fill="#fff7eb"></path><path d="M0 -364.5C37.7 -337 75.5 -309.6 122.8 -296.6C170.2 -283.6 227.2 -285.1 257.7 -257.7C288.2 -230.4 292.2 -174.3 305.6 -126.6C318.9 -78.8 341.7 -39.4 364.5 0L0 0Z" fill="#ffe6c3"></path><path d="M0 -243C25.2 -224.7 50.3 -206.4 81.9 -197.7C113.5 -189 151.5 -190 171.8 -171.8C192.2 -153.6 194.8 -116.2 203.7 -84.4C212.6 -52.5 227.8 -26.3 243 0L0 0Z" fill="#fed69c"></path><path d="M0 -121.5C12.6 -112.3 25.2 -103.2 40.9 -98.9C56.7 -94.5 75.7 -95 85.9 -85.9C96.1 -76.8 97.4 -58.1 101.9 -42.2C106.3 -26.3 113.9 -13.1 121.5 0L0 0Z" fill="#fcce88"></path></g></svg>