<svg id="visual" viewBox="0 0 960 540" width="960" height="540" xmlns="http://www.w3.org/2000/svg" xmlns:xlink="http://www.w3.org/1999/xlink" version="1.1"><rect x="0" y="0" width="960" height="540" fill="#FFFFFF"></rect><defs><linearGradient id="grad1_0" x1="43.8%" y1="0%" x2="100%" y2="100%"><stop offset="14.444444444444446%" stop-color="#fcd79f" stop-opacity="1"></stop><stop offset="85.55555555555554%" stop-color="#fcd79f" stop-opacity="1"></stop></linearGradient></defs><defs><linearGradient id="grad1_1" x1="43.8%" y1="0%" x2="100%" y2="100%"><stop offset="14.444444444444446%" stop-color="#fcd79f" stop-opacity="1"></stop><stop offset="85.55555555555554%" stop-color="#ffe4bf" stop-opacity="1"></stop></linearGradient></defs><defs><linearGradient id="grad1_2" x1="43.8%" y1="0%" x2="100%" y2="100%"><stop offset="14.444444444444446%" stop-color="#fff1df" stop-opacity="1"></stop><stop offset="85.55555555555554%" stop-color="#ffe4bf" stop-opacity="1"></stop></linearGradient></defs><defs><linearGradient id="grad1_3" x1="43.8%" y1="0%" x2="100%" y2="100%"><stop offset="14.444444444444446%" stop-color="#fff1df" stop-opacity="1"></stop><stop offset="85.55555555555554%" stop-color="#ffffff" stop-opacity="1"></stop></linearGradient></defs><defs><linearGradient id="grad2_0" x1="0%" y1="0%" x2="56.3%" y2="100%"><stop offset="14.444444444444446%" stop-color="#fcd79f" stop-opacity="1"></stop><stop offset="85.55555555555554%" stop-color="#fcd79f" stop-opacity="1"></stop></linearGradient></defs><defs><linearGradient id="grad2_1" x1="0%" y1="0%" x2="56.3%" y2="100%"><stop offset="14.444444444444446%" stop-color="#ffe4bf" stop-opacity="1"></stop><stop offset="85.55555555555554%" stop-color="#fcd79f" stop-opacity="1"></stop></linearGradient></defs><defs><linearGradient id="grad2_2" x1="0%" y1="0%" x2="56.3%" y2="100%"><stop offset="14.444444444444446%" stop-color="#ffe4bf" stop-opacity="1"></stop><stop offset="85.55555555555554%" stop-color="#fff1df" stop-opacity="1"></stop></linearGradient></defs><defs><linearGradient id="grad2_3" x1="0%" y1="0%" x2="56.3%" y2="100%"><stop offset="14.444444444444446%" stop-color="#ffffff" stop-opacity="1"></stop><stop offset="85.55555555555554%" stop-color="#fff1df" stop-opacity="1"></stop></linearGradient></defs><g transform="translate(960, 0)"><path d="M0 486C-66.1 481.3 -132.3 476.6 -186 449C-239.7 421.4 -280.9 370.8 -324.6 324.6C-368.2 278.3 -414.3 236.3 -441.6 182.9C-468.9 129.5 -477.5 64.8 -486 0L0 0Z" fill="#fff8ef"></path><path d="M0 364.5C-49.6 361 -99.2 357.5 -139.5 336.8C-179.8 316 -210.7 278.1 -243.4 243.4C-276.2 208.7 -310.7 177.2 -331.2 137.2C-351.7 97.2 -358.1 48.6 -364.5 0L0 0Z" fill="#ffebcf"></path><path d="M0 243C-33.1 240.7 -66.1 238.3 -93 224.5C-119.8 210.7 -140.5 185.4 -162.3 162.3C-184.1 139.1 -207.2 118.2 -220.8 91.5C-234.5 64.8 -238.7 32.4 -243 0L0 0Z" fill="#fedeaf"></path><path d="M0 121.5C-16.5 120.3 -33.1 119.2 -46.5 112.3C-59.9 105.3 -70.2 92.7 -81.1 81.1C-92.1 69.6 -103.6 59.1 -110.4 45.7C-117.2 32.4 -119.4 16.2 -121.5 0L0 0Z" fill="#fcd79f"></path></g><g transform="translate(0, 540)"><path d="M0 -486C51.5 -454.8 103.1 -423.6 168.4 -406.5C233.7 -389.4 312.7 -386.4 343.7 -343.7C374.6 -300.9 357.5 -218.5 373.2 -154.6C389 -90.7 437.5 -45.4 486 0L0 0Z" fill="#fff8ef"></path><path d="M0 -364.5C38.7 -341.1 77.3 -317.7 126.3 -304.9C175.2 -292.1 234.5 -289.8 257.7 -257.7C281 -225.7 268.1 -163.9 279.9 -116C291.7 -68 328.1 -34 364.5 0L0 0Z" fill="#ffebcf"></path><path d="M0 -243C25.8 -227.4 51.5 -211.8 84.2 -203.3C116.8 -194.7 156.3 -193.2 171.8 -171.8C187.3 -150.5 178.8 -109.2 186.6 -77.3C194.5 -45.4 218.7 -22.7 243 0L0 0Z" fill="#fedeaf"></path><path d="M0 -121.5C12.9 -113.7 25.8 -105.9 42.1 -101.6C58.4 -97.4 78.2 -96.6 85.9 -85.9C93.7 -75.2 89.4 -54.6 93.3 -38.7C97.2 -22.7 109.4 -11.3 121.5 0L0 0Z" fill="#fcd79f"></path></g></svg>